<mxfile host="65bd71144e">
    <diagram id="woA2LWqYk4HZKoxeEtib" name="CodeEngine">
        <mxGraphModel dx="725" dy="700" grid="1" gridSize="10" guides="1" tooltips="1" connect="1" arrows="1" fold="1" page="1" pageScale="1" pageWidth="827" pageHeight="1169" background="#ffffff" math="0" shadow="0">
            <root>
                <mxCell id="0"/>
                <mxCell id="1" parent="0"/>
                <mxCell id="3" value="IBM Cloud" style="shape=mxgraph.ibm.box;prType=cloud;fontStyle=0;verticalAlign=top;align=left;spacingLeft=32;spacingTop=4;fillColor=none;rounded=0;whiteSpace=wrap;html=1;strokeColor=#4376BB;strokeWidth=3;dashed=0;container=1;spacing=-4;collapsible=0;expand=0;recursiveResize=0;" parent="1" vertex="1">
                    <mxGeometry x="220" y="70" width="470" height="460" as="geometry"/>
                </mxCell>
                <mxCell id="4" value="Code Engine" style="fontStyle=0;verticalAlign=top;align=center;spacingTop=-2;fillColor=none;rounded=0;whiteSpace=wrap;html=1;strokeColor=#919191;strokeWidth=2;dashed=1;container=1;collapsible=0;expand=0;recursiveResize=0;" parent="3" vertex="1">
                    <mxGeometry x="60" y="40" width="200" height="390" as="geometry"/>
                </mxCell>
                <mxCell id="5" value="Project" style="rounded=1;whiteSpace=wrap;html=1;verticalAlign=top;" parent="4" vertex="1">
                    <mxGeometry x="10" y="37.5" width="180" height="342.5" as="geometry"/>
                </mxCell>
                <mxCell id="9" value="Create BuildRun" style="rhombus;whiteSpace=wrap;html=1;verticalAlign=middle;" parent="4" vertex="1">
                    <mxGeometry x="40" y="140" width="120" height="50" as="geometry"/>
                </mxCell>
                <mxCell id="15" style="edgeStyle=orthogonalEdgeStyle;rounded=0;orthogonalLoop=1;jettySize=auto;html=1;" parent="4" source="12" target="14" edge="1">
                    <mxGeometry relative="1" as="geometry"/>
                </mxCell>
                <mxCell id="12" value="Create App" style="rhombus;whiteSpace=wrap;html=1;verticalAlign=middle;" parent="4" vertex="1">
                    <mxGeometry x="40" y="210" width="120" height="50" as="geometry"/>
                </mxCell>
                <mxCell id="14" value="App" style="rounded=1;whiteSpace=wrap;html=1;verticalAlign=middle;" parent="4" vertex="1">
                    <mxGeometry x="40" y="280" width="120" height="50" as="geometry"/>
                </mxCell>
                <mxCell id="16" value="Buildpack" style="edgeStyle=orthogonalEdgeStyle;rounded=0;orthogonalLoop=1;jettySize=auto;html=1;entryX=0.5;entryY=1;entryDx=0;entryDy=0;exitX=1;exitY=1;exitDx=0;exitDy=0;" parent="4" source="9" target="9" edge="1">
                    <mxGeometry relative="1" as="geometry">
                        <Array as="points">
                            <mxPoint x="180" y="178"/>
                            <mxPoint x="180" y="190"/>
                        </Array>
                    </mxGeometry>
                </mxCell>
                <mxCell id="17" value="Dockerfile" style="edgeStyle=orthogonalEdgeStyle;rounded=0;orthogonalLoop=1;jettySize=auto;html=1;entryX=0.5;entryY=1;entryDx=0;entryDy=0;exitX=0;exitY=1;exitDx=0;exitDy=0;" parent="4" source="9" target="9" edge="1">
                    <mxGeometry relative="1" as="geometry">
                        <mxPoint x="100" y="190" as="targetPoint"/>
                        <Array as="points">
                            <mxPoint x="30" y="178"/>
                            <mxPoint x="30" y="190"/>
                        </Array>
                    </mxGeometry>
                </mxCell>
                <mxCell id="20" value="Secret" style="rounded=0;whiteSpace=wrap;html=1;" parent="4" vertex="1">
                    <mxGeometry x="131" y="350" width="50" height="20" as="geometry"/>
                </mxCell>
                <mxCell id="13" style="edgeStyle=orthogonalEdgeStyle;rounded=0;orthogonalLoop=1;jettySize=auto;html=1;entryX=1;entryY=0.5;entryDx=0;entryDy=0;" parent="3" source="6" target="12" edge="1">
                    <mxGeometry relative="1" as="geometry">
                        <Array as="points">
                            <mxPoint x="440" y="60"/>
                            <mxPoint x="440" y="275"/>
                        </Array>
                    </mxGeometry>
                </mxCell>
                <mxCell id="6" value="Container Registry" style="aspect=fixed;perimeter=ellipsePerimeter;html=1;align=center;shadow=0;dashed=0;fontColor=#4277BB;labelBackgroundColor=#ffffff;fontSize=12;spacingTop=3;image;image=img/lib/ibm/miscellaneous/ibm_containers.svg;" parent="3" vertex="1">
                    <mxGeometry x="350" y="40" width="40" height="40" as="geometry"/>
                </mxCell>
                <mxCell id="10" style="edgeStyle=orthogonalEdgeStyle;rounded=0;orthogonalLoop=1;jettySize=auto;html=1;entryX=0;entryY=0.5;entryDx=0;entryDy=0;" parent="3" source="9" target="6" edge="1">
                    <mxGeometry relative="1" as="geometry"/>
                </mxCell>
                <mxCell id="2" value="" style="dashed=0;outlineConnect=0;html=1;align=center;labelPosition=center;verticalLabelPosition=bottom;verticalAlign=top;shape=mxgraph.weblogos.github" parent="1" vertex="1">
                    <mxGeometry x="90" y="187.5" width="40" height="35" as="geometry"/>
                </mxCell>
                <mxCell id="8" style="edgeStyle=orthogonalEdgeStyle;rounded=0;orthogonalLoop=1;jettySize=auto;html=1;" parent="1" source="7" target="2" edge="1">
                    <mxGeometry relative="1" as="geometry"/>
                </mxCell>
                <mxCell id="7" value="Create Build" style="rhombus;whiteSpace=wrap;html=1;verticalAlign=middle;" parent="1" vertex="1">
                    <mxGeometry x="320" y="180" width="120" height="50" as="geometry"/>
                </mxCell>
                <mxCell id="11" style="edgeStyle=orthogonalEdgeStyle;rounded=0;orthogonalLoop=1;jettySize=auto;html=1;" parent="1" source="9" target="2" edge="1">
                    <mxGeometry relative="1" as="geometry"/>
                </mxCell>
                <mxCell id="19" value="Route" style="rounded=0;whiteSpace=wrap;html=1;" parent="1" vertex="1">
                    <mxGeometry x="355" y="460" width="50" height="20" as="geometry"/>
                </mxCell>
                <mxCell id="22" value="POD" style="rounded=0;whiteSpace=wrap;html=1;" parent="1" vertex="1">
                    <mxGeometry x="305" y="452" width="50" height="20" as="geometry"/>
                </mxCell>
                <mxCell id="21" value="POD" style="rounded=0;whiteSpace=wrap;html=1;" parent="1" vertex="1">
                    <mxGeometry x="300" y="456" width="50" height="20" as="geometry"/>
                </mxCell>
                <mxCell id="18" value="POD" style="rounded=0;whiteSpace=wrap;html=1;" parent="1" vertex="1">
                    <mxGeometry x="296" y="460" width="50" height="20" as="geometry"/>
                </mxCell>
            </root>
        </mxGraphModel>
    </diagram>
</mxfile>